<svg width="144" height="143" viewBox="0 0 144 143" fill="none" xmlns="http://www.w3.org/2000/svg">
<mask id="mask0_9_21" style="mask-type:alpha" maskUnits="userSpaceOnUse" x="0" y="0" width="144" height="143">
<rect x="0.570801" width="142.858" height="142.858" fill="#D9D9D9"/>
</mask>
<g mask="url(#mask0_9_21)">
<path d="M24.8269 54.7162H119.173L113.313 34.5702H30.8359L24.8269 54.7162ZM101.831 60.6687H42.2036L40.1083 76.9233H104.006L101.831 60.6687ZM29.3032 113.211L36.3657 60.6687H22.3195C21.0228 60.6687 19.9757 60.1424 19.1781 59.0898C18.3805 58.0362 18.1533 56.8725 18.4965 55.5987L25.4906 31.4452C25.7347 30.5365 26.2005 29.8192 26.888 29.2934C27.5745 28.7666 28.383 28.5414 29.3136 28.6178H114.801C115.732 28.6178 116.54 28.8812 117.227 29.408C117.914 29.9338 118.38 30.651 118.624 31.5598L125.618 55.5987C125.961 56.8725 125.734 58.0362 124.936 59.0898C124.139 60.1424 123.092 60.6687 121.795 60.6687H107.668L114.697 113.211H108.859L104.726 82.8757H39.2735L35.141 113.211H29.3032Z" fill="#1C1B1F"/>
</g>
</svg>
